<svg xmlns="http://www.w3.org/2000/svg" width="256" height="256" viewBox="0 0 100 100"><path d="M44.72 32.82L44.72 42.42Q42.99 44.34 40.06 47.60Q37.14 50.86 33.78 54.80Q30.42 58.74 27.01 63.06Q23.60 67.38 20.82 71.41L20.82 71.41L45.20 71.41L45.20 83.31L3.44 83.31L3.44 74.86Q5.46 71.41 8.29 67.42Q11.12 63.44 14.24 59.41Q17.36 55.38 20.43 51.58Q23.50 47.79 26.10 44.72L26.10 44.72L4.59 44.72L4.59 32.82L44.72 32.82ZM69.97 84.75L69.97 84.75Q67.38 84.75 64.50 84.42Q61.62 84.08 58.93 83.50Q56.24 82.93 54.03 82.26Q51.82 81.58 50.58 81.01L50.58 81.01L53.36 69.10Q55.86 70.16 59.74 71.36Q63.63 72.56 69.39 72.56L69.39 72.56Q76.02 72.56 79.09 70.06Q82.16 67.57 82.16 63.34L82.16 63.34Q82.16 60.75 81.06 58.98Q79.95 57.20 78.03 56.10Q76.11 54.99 73.47 54.56Q70.83 54.13 67.86 54.13L67.86 54.13L62.29 54.13L62.29 42.61L68.62 42.61Q70.74 42.61 72.70 42.22Q74.67 41.84 76.21 40.93Q77.74 40.02 78.66 38.43Q79.57 36.85 79.57 34.45L79.57 34.45Q79.57 32.62 78.80 31.28Q78.03 29.94 76.83 29.07Q75.63 28.21 74.05 27.78Q72.46 27.34 70.83 27.34L70.83 27.34Q66.70 27.34 63.20 28.59Q59.70 29.84 56.82 31.66L56.82 31.66L51.73 21.20Q53.26 20.24 55.33 19.18Q57.39 18.13 59.89 17.26Q62.38 16.40 65.22 15.82Q68.05 15.25 71.22 15.25L71.22 15.25Q77.07 15.25 81.34 16.64Q85.62 18.03 88.40 20.58Q91.18 23.12 92.53 26.53Q93.87 29.94 93.87 33.97L93.87 33.97Q93.87 37.90 91.66 41.60Q89.46 45.30 85.71 47.22L85.71 47.22Q90.90 49.33 93.73 53.50Q96.56 57.68 96.56 63.54L96.56 63.54Q96.56 68.14 95.02 72.03Q93.49 75.92 90.22 78.75Q86.96 81.58 81.92 83.17Q76.88 84.75 69.97 84.75Z" fill="#ffffff"></path></svg>